<?xml version="1.0" encoding="UTF-8" standalone="no"?> <svg width="512" height="512" viewBox="0 0 512 512" fill="none" xmlns="http://www.w3.org/2000/svg">
<path d="M256 296.635C326.131 296.635 382.984 239.782 382.984 169.651C382.984 99.5197 326.131 42.667 256 42.667C185.868 42.667 129.016 99.5197 129.016 169.651C129.016 239.782 185.868 296.635 256 296.635Z" fill="#FD3730"/>
<path d="M342.349 469.333C412.481 469.333 469.333 412.481 469.333 342.349C469.333 272.218 412.481 215.365 342.349 215.365C272.218 215.365 215.365 272.218 215.365 342.349C215.365 412.481 272.218 469.333 342.349 469.333Z" fill="#009AE0"/>
<path d="M169.652 469.333C239.783 469.333 296.636 412.481 296.636 342.349C296.636 272.218 239.783 215.365 169.652 215.365C99.5206 215.365 42.668 272.218 42.668 342.349C42.668 412.481 99.5206 469.333 169.652 469.333Z" fill="#FAC100"/>
<path d="M373 219.093C365.309 237.247 353.505 253.364 338.518 266.174C323.531 278.984 305.772 288.135 286.643 292.906C279.637 276.348 269.195 261.467 256.008 249.247C271.476 234.909 290.269 224.646 310.692 219.382C331.116 214.118 352.528 214.019 373 219.093V219.093Z" fill="#A754BA"/>
<path d="M256.006 249.248C242.813 261.468 232.364 276.349 225.35 292.907C206.222 288.135 188.464 278.983 173.479 266.173C158.493 253.363 146.69 237.246 139 219.093C159.473 214.02 180.886 214.119 201.311 219.384C221.736 224.648 240.53 234.911 256 249.248H256.006Z" fill="#F87600"/>
<path d="M296.637 342.347C296.658 359.829 293.059 377.127 286.067 393.15C279.074 409.172 268.84 423.574 256.008 435.447C236.89 417.705 223.693 394.51 218.209 369.01C212.724 343.511 215.218 316.941 225.351 292.907C245.478 297.885 266.515 297.885 286.642 292.907C293.262 308.548 296.662 325.363 296.637 342.347V342.347Z" fill="#00B157"/>
<path d="M286.641 292.907C266.513 297.885 245.477 297.885 225.35 292.907C232.364 276.349 242.813 261.468 256.006 249.248C269.193 261.468 279.635 276.349 286.641 292.907V292.907Z" fill="#C6512B"/>
<path d="M386.939 212.115C391.395 198.401 393.66 184.071 393.651 169.651C393.651 93.75 331.9 32 256 32C180.1 32 118.35 93.75 118.35 169.651C118.341 184.071 120.606 198.401 125.062 212.115C97.9287 221.443 74.3808 239.002 57.6996 262.346C41.0183 285.691 32.0345 313.657 32 342.349C32 418.25 93.75 480 169.651 480C201.085 480.029 231.573 469.247 256 449.462C280.427 469.247 310.915 480.029 342.35 480C418.25 480 480 418.25 480 342.349C479.966 313.657 470.982 285.691 454.301 262.347C437.62 239.002 414.072 221.443 386.939 212.115V212.115ZM139.683 169.651C139.687 152.787 143.358 136.125 150.441 120.821C157.524 105.516 167.851 91.935 180.705 81.0184C193.559 70.1018 208.633 62.1109 224.883 57.5994C241.133 53.0879 258.169 52.1637 274.811 54.891C291.453 57.6183 307.303 63.9318 321.263 73.394C335.222 82.8561 346.958 95.2405 355.655 109.689C364.352 124.137 369.804 140.304 371.632 157.069C373.46 173.834 371.62 190.796 366.241 206.779C346.899 203.376 327.053 204.155 308.037 209.064C289.022 213.973 271.278 222.897 256 235.237C240.722 222.897 222.978 213.973 203.963 209.064C184.947 204.155 165.101 203.376 145.759 206.779C141.724 194.817 139.672 182.275 139.683 169.651ZM285.968 342.351C285.991 371.122 275.309 398.871 256 420.2C242.166 404.884 232.661 386.16 228.462 365.953C224.263 345.746 225.521 324.785 232.108 305.226C247.915 308 264.085 308 279.892 305.226C283.926 317.187 285.979 329.726 285.968 342.349V342.351ZM256 285.969C251.041 285.97 246.088 285.656 241.169 285.028C245.355 277.669 250.328 270.786 256 264.5C261.672 270.785 266.646 277.667 270.832 285.025C265.913 285.654 260.959 285.969 256 285.969V285.969ZM219.587 280.125C192.172 271.018 169.1 252.084 154.819 226.973C159.738 226.345 164.692 226.03 169.651 226.031C195.215 226.004 220.068 234.444 240.33 250.031C232.114 259.1 225.139 269.22 219.587 280.125V280.125ZM271.67 250.036C291.932 234.449 316.785 226.009 342.349 226.036C347.308 226.035 352.261 226.349 357.18 226.977C342.899 252.087 319.826 271.021 292.412 280.128C286.86 269.224 279.885 259.104 271.67 250.036V250.036ZM53.333 342.349C53.3634 317.876 61.0984 294.035 75.4408 274.205C89.7833 254.376 110.005 239.566 133.238 231.876C149.505 263.813 177.529 288.194 211.41 299.886C203.94 322.909 202.68 347.495 207.758 371.161C212.836 394.826 224.072 416.732 240.33 434.663C223.11 447.87 202.537 455.993 180.939 458.113C159.342 460.233 137.582 456.266 118.123 446.66C98.663 437.053 82.2809 422.192 70.8302 403.758C59.3795 385.323 53.3174 364.051 53.33 342.35L53.333 342.349ZM342.35 458.667C316.786 458.694 291.933 450.254 271.671 434.667C287.929 416.736 299.165 394.83 304.243 371.165C309.321 347.499 308.061 322.913 300.591 299.89C334.472 288.198 362.495 263.817 378.763 231.88C405.023 240.539 427.34 258.27 441.711 281.893C456.082 305.517 461.568 333.487 457.184 360.788C452.8 388.089 438.835 412.936 417.791 430.873C396.747 448.81 370.001 458.664 342.35 458.667V458.667Z" fill="black"/>
</svg>
